<svg xmlns="http://www.w3.org/2000/svg" width="101" height="202" fill="none" viewBox="0 0 101 202">
  <path fill="#39414A" stroke="url(#a)" stroke-width="4" d="m2.192 194.617.52-.843a210.931 210.931 0 0 1 11.696-16.924c9.865-12.849 23.774-27.628 39.596-34.413 15.194-6.516 26.631-13.701 34.182-20.713 7.61-7.068 10.988-13.682 10.807-19.072-.18-5.377-3.815-11.064-11.538-17.713-7.67-6.602-18.971-13.819-33.664-22.313-15.056-8.704-28.902-24.202-38.916-37.36A268.89 268.89 0 0 1 2.192 7.058v187.559Z"/>
  <defs>
    <linearGradient id="a" x1="101" x2=".192" y1="100.981" y2="100.981" gradientUnits="userSpaceOnUse">
      <stop stop-color="#E1EFFF" stop-opacity=".25"/>
      <stop offset="1" stop-opacity="0"/>
    </linearGradient>
  </def>
</svg>
