<svg xmlns="http://www.w3.org/2000/svg" width="62" height="62" fill="none" viewBox="0 0 62 62">
  <g clip-path="url(#a)">
    <path fill="#47515C" d="M30.79.015c.8 0 1.545.458 1.946 1.144a2.325 2.325 0 0 1 0 2.286 19.103 19.103 0 0 0-2.46 9.371c0 10.574 8.582 19.147 19.165 19.147a18.773 18.773 0 0 0 8.922-2.228 2.33 2.33 0 0 1 2.288.056 2.395 2.395 0 0 1 1.087 2.001c-.228 8.058-3.545 15.545-9.323 21.203-5.777 5.657-13.386 8.743-21.51 8.743-17.046 0-30.89-13.83-30.89-30.86C.016 13.903 13.802.072 30.792.014v.001ZM55.948 16.12c.673 0 1.22.537 1.22 1.194 0 1.786 1.524 3.278 3.353 3.278.67 0 1.22.536 1.22 1.191a1.211 1.211 0 0 1-1.22 1.192c-1.83 0-3.352 1.492-3.352 3.278a1.211 1.211 0 0 1-1.22 1.194 1.21 1.21 0 0 1-1.221-1.194c0-1.788-1.523-3.278-3.352-3.278a1.21 1.21 0 0 1-1.219-1.192c0-.655.548-1.191 1.22-1.191l.117-.004h-.04.1c1.75-.093 3.176-1.544 3.176-3.274 0-.657.548-1.194 1.22-1.194h-.002ZM44.413.015c.655 0 1.19.535 1.19 1.188a7.714 7.714 0 0 0 7.729 7.73c.653 0 1.19.534 1.19 1.188a1.194 1.194 0 0 1-1.19 1.19 7.713 7.713 0 0 0-7.73 7.729 1.193 1.193 0 0 1-1.189 1.19 1.192 1.192 0 0 1-1.19-1.19 7.714 7.714 0 0 0-7.726-7.73 1.194 1.194 0 0 1-1.157-.911h-.033.033a1.192 1.192 0 0 1 1.157-1.467 7.713 7.713 0 0 0 7.727-7.729c0-.653.536-1.188 1.19-1.188Z"/>
  </g>
  <defs>
    <clipPath id="a">
      <path fill="#fff" d="M0 0h62v62H0z"/>
    </clipPath>
  </defs>
</svg>
