<svg xmlns="http://www.w3.org/2000/svg" width="62" height="62" fill="none" viewBox="0 0 62 62">
  <g clip-path="url(#a)">
    <path fill="#FCB52B" d="M30.93 49.206c-10.123 0-18.277-8.294-18.277-18.276s8.154-18.277 18.277-18.277c10.122 0 18.276 8.014 18.276 18.277 0 10.263-8.154 18.276-18.276 18.276Zm0 0c-10.123 0-18.277-8.294-18.277-18.276s8.154-18.277 18.277-18.277c10.122 0 18.276 8.014 18.276 18.277 0 10.263-8.154 18.276-18.276 18.276ZM7.732 31.07c0-.14 0-.14 0 0 0-.984.141-1.968.141-2.952H2.249C1.125 28.118 0 29.243 0 30.368v.984c0 1.265 1.125 2.39 2.25 2.39h5.623c-.14-.844-.14-1.828-.14-2.672Zm5.062-14.48a24.23 24.23 0 0 1 3.796-3.796l-1.969-1.969c-.703-.984-2.25-.984-3.233 0l-.563.563a2.14 2.14 0 0 0 0 3.233l1.969 1.969Zm36.412 0 1.828-2.11c.984-.702.984-2.249 0-3.233l-.703-.703c-.703-.984-2.25-.984-3.234 0l-1.968 1.968c1.406 1.266 2.812 2.531 4.077 4.078ZM30.93 7.732c.984 0 1.827.141 2.812.141V2.249c0-1.124-1.125-2.249-2.25-2.249h-.984c-1.265 0-2.39 1.125-2.39 2.25v5.764c.984-.141 1.828-.282 2.812-.282Zm28.54 20.386h-5.484c.141.984.141 1.828.141 2.812 0 .984 0 1.827-.14 2.67h5.482c1.266 0 2.39-1.124 2.39-2.39v-.983c0-.984-1.124-2.11-2.39-2.11ZM12.793 45.41l-1.828 1.969c-.984.703-.984 2.25 0 3.233l.703.703c.703.984 2.25.984 3.233 0l1.969-1.968c-1.547-1.125-2.953-2.39-4.077-3.937Zm36.553-.28a18.69 18.69 0 0 1-4.077 4.076l1.968 1.969c.703.984 2.25.984 3.234 0l.843-.844c.984-.703.984-2.25 0-3.234l-1.968-1.968ZM30.93 54.126c-.844 0-1.828 0-2.671-.14v5.623c0 1.265.984 2.39 2.249 2.39h.984c1.125 0 2.25-1.125 2.25-2.39v-5.624c-.985.141-1.828.141-2.812.141Z"/>
  </g>
  <defs>
    <clipPath id="a">
      <path fill="#fff" d="M0 0h62v62H0z"/>
    </clipPath>
  </defs>
</svg>
